<svg width="26" height="27" viewBox="0 0 26 27" fill="none" xmlns="http://www.w3.org/2000/svg">
<path d="M16.2503 5.91643L20.5836 10.2498M22.9388 7.87943C23.5115 7.3068 23.8334 6.5301 23.8335 5.72019C23.8336 4.91027 23.5119 4.13349 22.9393 3.56072C22.3667 2.98795 21.59 2.66612 20.7801 2.66602C19.9701 2.66591 19.1934 2.98755 18.6206 3.56018L4.16242 18.0216C3.91089 18.2724 3.72488 18.5812 3.62075 18.9208L2.18967 23.6354C2.16167 23.7291 2.15956 23.8286 2.18355 23.9234C2.20754 24.0182 2.25675 24.1048 2.32595 24.1738C2.39515 24.2429 2.48176 24.292 2.57659 24.3158C2.67143 24.3397 2.77094 24.3374 2.86459 24.3093L7.58034 22.8793C7.9196 22.7761 8.22836 22.5912 8.4795 22.3408L22.9388 7.87943Z" stroke="black" stroke-width="2" stroke-linecap="round" stroke-linejoin="round"/>
</svg>
