<svg width="60" height="61" viewBox="0 0 60 61" fill="none" xmlns="http://www.w3.org/2000/svg">
<g clip-path="url(#clip0_55_282)">
<path d="M46.83 17.105C47.4435 21.1985 48.156 23.5415 45.228 23.5415C41.244 23.5415 41.2425 14.1125 34.5 8.74096C27.8295 3.42796 22.854 4.71946 22.749 4.74796C22.7475 4.74946 22.7445 4.75246 22.743 4.75396C28.299 9.39196 25.2 17.015 21.564 19.1165C18.075 21.1325 14.0925 18.59 16.1775 12.6065C11.592 18.8765 7.63354 26.474 7.63354 34.0445C7.63354 46.397 17.6475 56.411 30 56.411C42.3525 56.411 52.3665 46.397 52.3665 34.0445C52.3665 28.208 50.0085 22.355 46.83 17.105Z" fill="#EF4452"/>
<path d="M30 30.527C30 30.527 39.726 36.128 39.726 43.9535C39.726 49.325 35.3715 53.6795 30 53.6795C24.6285 53.6795 20.274 49.325 20.274 43.9535C20.274 36.128 30 30.527 30 30.527Z" fill="#FF7978"/>
</g>
<defs>
<clipPath id="clip0_55_282">
<rect width="60" height="60" fill="white" transform="translate(0 0.5)"/>
</clipPath>
</defs>
</svg>
