<svg width="50" height="50" viewBox="0 0 50 50" fill="none" xmlns="http://www.w3.org/2000/svg">
<g clip-path="url(#clip0_160_982)">
<path d="M33.5375 41.205C33.5375 41.205 25.1138 45.1963 13.525 44.9925C12.2363 44.97 11.3888 43.6263 11.91 42.4475L16.5513 31.9563L33.5375 41.205Z" fill="#1E6EF4"/>
<path d="M33.5375 8.79504C33.5375 8.79504 25.1138 4.80379 13.525 5.00754C12.2363 5.03004 11.3888 6.37379 11.91 7.55254L16.5513 18.0438L33.5375 8.79504Z" fill="#1E6EF4"/>
<path d="M6.14997 31.7113L13.6925 24.99L6.15872 18.295C5.11122 17.365 3.43122 17.7938 3.00372 19.1288C2.16372 21.755 1.39122 26.0638 2.97497 30.8538C3.41872 32.195 5.09622 32.6513 6.14997 31.7113Z" fill="#1E6EF4"/>
<path d="M10.8599 20.2963C9.01869 23.0076 9.01869 26.9988 10.8599 29.7101C14.3874 34.9038 20.8237 42.5363 28.1787 42.5363C35.4299 42.5363 41.7874 35.1176 45.3462 29.9313C47.2849 27.1063 47.2849 22.9001 45.3462 20.0763C41.7874 14.8901 35.4299 7.47131 28.1787 7.47131C20.8237 7.47131 14.3887 15.1038 10.8599 20.2976V20.2963Z" fill="#93C9FF"/>
<path d="M32.3263 41.7463C39.6563 39.0425 45.5338 29.97 47.5988 26.42C48.0575 25.6313 48.0575 24.3488 47.5988 23.56C45.5338 20.0088 39.6563 10.9363 32.3263 8.23376C32.3263 8.23376 16.7675 25.0013 32.3263 41.7463Z" fill="#64A7FF"/>
<path d="M38.4362 24.6913C39.714 24.6913 40.7499 23.6554 40.7499 22.3776C40.7499 21.0997 39.714 20.0638 38.4362 20.0638C37.1583 20.0638 36.1224 21.0997 36.1224 22.3776C36.1224 23.6554 37.1583 24.6913 38.4362 24.6913Z" fill="black"/>
<path d="M22.475 29.36L28.4137 24.9938L22.4825 20.645C21.6587 20.0413 20.335 20.32 19.9987 21.1863C19.3375 22.8925 18.7287 25.6913 19.9762 28.8025C20.325 29.6738 21.645 29.97 22.475 29.36Z" fill="#64A7FF"/>
</g>
<defs>
<clipPath id="clip0_160_982">
<rect width="50" height="50" fill="white"/>
</clipPath>
</defs>
</svg>
